<?xml version="1.0" standalone="no"?>
<!DOCTYPE svg PUBLIC "-//W3C//DTD SVG 20010904//EN"
 "http://www.w3.org/TR/2001/REC-SVG-20010904/DTD/svg10.dtd">
<svg version="1.0" xmlns="http://www.w3.org/2000/svg"
 width="512.000000pt" height="512.000000pt" viewBox="0 0 242.000000 242.000000"
 preserveAspectRatio="xMidYMid meet">
<metadata>
Created by potrace 1.14, written by Peter Selinger 2001-2017
</metadata>
<g transform="translate(0.000000,242.000000) scale(0.100000,-0.100000)"
fill="#000000" stroke="none">
<path d="M370 2353 c-134 -34 -243 -135 -292 -271 -20 -56 -21 -75 -22 -842
-2 -699 0 -792 14 -846 30 -111 90 -193 185 -253 102 -65 76 -63 943 -63 574
0 799 3 832 12 157 41 284 182 307 340 5 30 8 401 7 825 -1 705 -2 774 -18
820 -50 141 -159 241 -305 280 -74 19 -1574 18 -1651 -2z m1475 -676 c11 -6
23 -10 28 -9 4 1 7 -3 7 -9 0 -5 4 -8 9 -5 4 3 16 -3 26 -14 24 -27 30 -26 54
15 36 62 47 39 47 -105 0 -118 -2 -130 -18 -130 -10 0 -18 7 -18 15 0 38 -45
128 -81 164 -72 71 -215 82 -275 22 -38 -39 -44 -51 -62 -113 -14 -52 -17
-105 -17 -298 1 -248 6 -289 47 -350 53 -78 172 -99 262 -46 46 27 116 107
116 132 0 8 5 14 10 14 6 0 9 3 8 8 -5 18 22 72 37 72 14 0 16 -16 11 -136 -2
-75 -7 -139 -11 -142 -3 -4 -21 11 -38 31 l-32 39 -59 -36 c-91 -55 -207 -61
-297 -16 -63 32 -164 138 -195 206 -59 129 -66 299 -17 424 4 8 7 17 7 20 4
20 30 70 37 70 4 0 10 9 14 20 10 32 98 115 147 139 80 38 200 47 253 18z
m-926 -11 c144 -24 230 -86 291 -211 71 -144 76 -294 15 -432 -41 -91 -108
-167 -180 -202 -86 -43 -153 -52 -387 -52 -313 -1 -300 -2 -296 18 2 14 15 17
71 17 l67 -1 0 419 0 418 -70 0 c-52 0 -70 3 -70 13 0 8 2 16 5 18 7 8 505 3
554 -5z"/>
<path d="M664 1224 l1 -419 95 -1 c212 -1 267 38 318 226 2 8 6 92 8 185 4
188 -6 254 -52 327 -23 36 -77 78 -114 86 -8 2 -69 6 -136 9 l-121 5 1 -418z"/>
</g>
</svg>
